<svg width="154" height="26" viewBox="0 0 154 26" fill="none" xmlns="http://www.w3.org/2000/svg">
<path fill-rule="evenodd" clip-rule="evenodd" d="M100.536 24.5261C95.9308 24.5261 93.6284 22.3349 93.6284 17.9525V11.5456H91.0256C90.7809 11.5456 90.5696 11.4678 90.3916 11.3121C90.2359 11.1563 90.158 10.9561 90.158 10.7114V8.00853C90.158 7.76383 90.2359 7.56361 90.3916 7.40789C90.5696 7.25217 90.7809 7.17431 91.0256 7.17431H93.6284V1.66844C93.6284 1.42374 93.7062 1.22353 93.862 1.0678C94.0399 0.912082 94.2401 0.834221 94.4626 0.834221H98.3334C98.5781 0.834221 98.7783 0.912082 98.934 1.0678C99.0898 1.22353 99.1676 1.42374 99.1676 1.66844V7.17431H103.339C103.583 7.17431 103.784 7.25217 103.939 7.40789C104.117 7.56361 104.206 7.76383 104.206 8.00853V10.7114C104.206 10.9561 104.117 11.1563 103.939 11.3121C103.784 11.4678 103.583 11.5456 103.339 11.5456H99.1676V17.4853C99.1676 19.1315 99.8016 19.9546 101.07 19.9546H103.639C103.884 19.9546 104.084 20.0325 104.24 20.1882C104.395 20.3439 104.473 20.5441 104.473 20.7888V23.6919C104.473 23.9144 104.395 24.1146 104.24 24.2926C104.084 24.4483 103.884 24.5261 103.639 24.5261H100.536ZM109.205 24.1924C110.184 24.6374 111.263 24.8598 112.442 24.8598C113.643 24.8598 114.677 24.6485 115.545 24.2258C116.435 23.7809 117.124 23.2136 117.614 22.524V23.6919C117.614 23.9144 117.692 24.1146 117.847 24.2926C118.025 24.4483 118.226 24.5261 118.448 24.5261H122.319C122.564 24.5261 122.764 24.4483 122.919 24.2926C123.075 24.1146 123.153 23.9144 123.153 23.6919V13.5478C123.153 11.5011 122.497 9.87719 121.184 8.67591C119.872 7.45238 117.847 6.84062 115.111 6.84062C113.398 6.84062 111.952 7.10757 110.773 7.64147C109.616 8.17538 108.749 8.80939 108.17 9.5435C107.614 10.2776 107.325 10.945 107.303 11.5456C107.281 11.7458 107.336 11.9238 107.47 12.0795C107.625 12.213 107.815 12.2798 108.037 12.2798H111.674C111.852 12.2798 111.974 12.1908 112.041 12.0128C112.197 11.9238 112.431 11.7458 112.742 11.4789C113.098 11.1675 113.443 10.9227 113.776 10.7448C114.11 10.5668 114.533 10.4778 115.044 10.4778C115.89 10.4778 116.49 10.678 116.846 11.0785C117.202 11.4789 117.38 12.1018 117.38 12.9471V13.4143L113.209 14.0483C111.007 14.4042 109.272 15.0494 108.004 15.9837C106.758 16.918 106.135 18.1527 106.135 19.6876C106.135 20.6442 106.402 21.5229 106.936 22.3238C107.492 23.1024 108.248 23.7253 109.205 24.1924ZM116.479 20.0547C115.856 20.7221 115.033 21.0558 114.01 21.0558C113.343 21.0558 112.775 20.9 112.308 20.5886C111.841 20.2549 111.607 19.81 111.607 19.2538C111.607 18.2083 112.608 17.5075 114.611 17.1516L117.447 16.6511V17.1182C117.447 18.4085 117.124 19.3873 116.479 20.0547ZM127.753 24.5261C127.508 24.5261 127.308 24.4483 127.152 24.2926C126.996 24.1368 126.919 23.9366 126.919 23.6919V8.00853C126.919 7.76383 126.996 7.56361 127.152 7.40789C127.308 7.25217 127.508 7.17431 127.753 7.17431H131.59C131.835 7.17431 132.035 7.25217 132.191 7.40789C132.369 7.56361 132.458 7.76383 132.458 8.00853V9.27655C133.058 8.54243 133.826 7.95292 134.76 7.508C135.717 7.06308 136.796 6.84062 137.997 6.84062C139.955 6.84062 141.545 7.508 142.769 8.84275C143.992 10.1553 144.604 12.0017 144.604 14.382V23.6919C144.604 23.9144 144.526 24.1146 144.37 24.2926C144.215 24.4483 144.015 24.5261 143.77 24.5261H139.565C139.343 24.5261 139.143 24.4483 138.965 24.2926C138.809 24.1146 138.731 23.9144 138.731 23.6919V14.5822C138.731 13.5366 138.475 12.7358 137.964 12.1796C137.452 11.6012 136.718 11.3121 135.761 11.3121C134.827 11.3121 134.093 11.6012 133.559 12.1796C133.025 12.7358 132.758 13.5366 132.758 14.5822V23.6919C132.758 23.9144 132.68 24.1146 132.525 24.2926C132.369 24.4483 132.169 24.5261 131.924 24.5261H127.753ZM148.561 4.43806C148.717 4.59378 148.917 4.67164 149.162 4.67164H153.166C153.41 4.67164 153.611 4.59378 153.766 4.43806C153.922 4.28234 154 4.08213 154 3.83742V0.834221C154 0.589517 153.922 0.389303 153.766 0.233581C153.611 0.0778604 153.41 0 153.166 0H149.162C148.917 0 148.717 0.0778604 148.561 0.233581C148.405 0.389303 148.327 0.589517 148.327 0.834221V3.83742C148.327 4.08213 148.405 4.28234 148.561 4.43806ZM148.594 24.2926C148.75 24.4483 148.95 24.5261 149.195 24.5261H153.132C153.377 24.5261 153.577 24.4483 153.733 24.2926C153.889 24.1146 153.967 23.9144 153.967 23.6919V8.00853C153.967 7.76383 153.889 7.56361 153.733 7.40789C153.577 7.25217 153.377 7.17431 153.132 7.17431H149.195C148.95 7.17431 148.75 7.25217 148.594 7.40789C148.439 7.56361 148.361 7.76383 148.361 8.00853V23.6919C148.361 23.9366 148.439 24.1368 148.594 24.2926Z" fill="#35974A"/>
<path d="M120 19.3854C121.731 18.257 120.342 14.6054 119.431 12.9207L109.05 19.9074C109.663 20.4778 111.23 22.0184 112.597 23.6169C114.305 25.6151 117.836 20.7959 120 19.3854Z" fill="#35974A"/>
<path d="M108.952 19.9731L109.05 19.9074M109.05 19.9074L119.431 12.9207C120.342 14.6054 121.731 18.257 120 19.3854C117.836 20.7959 114.305 25.6151 112.597 23.6169C111.23 22.0184 109.663 20.4778 109.05 19.9074Z" stroke="#35974A"/>
<path d="M109.564 18.6047C108.466 20.9093 109.195 23.3496 110.713 23.8141C111.263 21.7635 110.93 19.5138 109.564 18.6047Z" fill="white"/>
<path d="M114.588 21.9212C113.825 23.4938 112.239 24.521 110.713 24.0463C111.31 21.8771 113.234 21.0127 114.588 21.9212Z" fill="white"/>
<path d="M111.85 15.3142C110.401 17.3776 110.744 19.9238 112.165 20.6841C113.024 18.7763 113.053 16.4826 111.85 15.3142Z" fill="white"/>
<path d="M116.315 19.5889C115.312 20.9951 113.594 21.6878 112.165 20.9157C113.089 18.9006 115.125 18.4221 116.315 19.5889Z" fill="white"/>
<path d="M118.557 14.6134C117.826 16.5037 116.043 17.9059 113.919 18.2396C113.943 16.2179 116.332 14.3414 118.557 14.6134Z" fill="white"/>
<path d="M114.598 17.4583C113.748 18.1534 111.725 20.5634 110.427 24.6418" stroke="white" stroke-width="2"/>
<path fill-rule="evenodd" clip-rule="evenodd" d="M20.1793 4.90333C19.9346 4.90333 19.7344 4.82547 19.5787 4.66975C19.423 4.51403 19.3451 4.31382 19.3451 4.06911V1.06591C19.3451 0.821206 19.423 0.620993 19.5787 0.465271C19.7344 0.30955 19.9346 0.231689 20.1793 0.231689H24.1836C24.4283 0.231689 24.6285 0.30955 24.7842 0.465271C24.9399 0.620993 25.0178 0.821206 25.0178 1.06591V4.06911C25.0178 4.31382 24.9399 4.51403 24.7842 4.66975C24.6285 4.82547 24.4283 4.90333 24.1836 4.90333H20.1793ZM20.2127 24.7578C19.968 24.7578 19.7678 24.68 19.612 24.5242C19.4563 24.3685 19.3785 24.1683 19.3785 23.9236V8.24022C19.3785 7.99552 19.4563 7.7953 19.612 7.63958C19.7678 7.48386 19.968 7.406 20.2127 7.406H24.1502C24.3949 7.406 24.5951 7.48386 24.7509 7.63958C24.9066 7.7953 24.9844 7.99552 24.9844 8.24022V23.9236C24.9844 24.1461 24.9066 24.3463 24.7509 24.5242C24.5951 24.68 24.3949 24.7578 24.1502 24.7578H20.2127ZM8.07527 25.0915C6.27335 25.0915 4.76063 24.8357 3.5371 24.324C2.33582 23.8124 1.44599 23.2006 0.867591 22.4887C0.289197 21.7769 0 21.1429 0 20.5867C0 20.3643 0.0778607 20.1863 0.233582 20.0528C0.41155 19.8971 0.60064 19.8192 0.800853 19.8192H4.60491C4.73838 19.8192 4.86073 19.8748 4.97196 19.9861C5.23892 20.164 5.43913 20.3086 5.5726 20.4199C6.06202 20.7758 6.48469 21.0428 6.84062 21.2207C7.2188 21.3764 7.67484 21.4543 8.20875 21.4543C8.85388 21.4543 9.37666 21.3319 9.77708 21.0872C10.1998 20.8203 10.4111 20.4532 10.4111 19.9861C10.4111 19.6079 10.2999 19.3076 10.0774 19.0851C9.87719 18.8627 9.47676 18.6513 8.87613 18.4511C8.27549 18.2286 7.3634 17.9951 6.13988 17.7504C4.29346 17.3722 2.86972 16.7604 1.86866 15.9151C0.889837 15.0475 0.400427 13.8907 0.400427 12.4447C0.400427 11.5326 0.689624 10.665 1.26802 9.84193C1.84641 9.01883 2.70288 8.35145 3.83742 7.8398C4.99421 7.32814 6.36234 7.07231 7.9418 7.07231C9.52126 7.07231 10.9005 7.31702 12.0795 7.80643C13.2586 8.29584 14.1484 8.89648 14.749 9.60835C15.3719 10.298 15.6834 10.932 15.6834 11.5104C15.6834 11.7106 15.6055 11.8886 15.4498 12.0443C15.3163 12.2 15.1495 12.2779 14.9493 12.2779H11.4789C11.3009 12.2779 11.1341 12.2222 10.9784 12.111C10.6892 11.9553 10.4333 11.7884 10.2109 11.6105C9.8327 11.3213 9.47676 11.0988 9.14308 10.9431C8.80939 10.7874 8.39784 10.7095 7.90843 10.7095C7.33003 10.7095 6.86287 10.843 6.50693 11.1099C6.17324 11.3769 6.0064 11.7217 6.0064 12.1444C6.0064 12.4781 6.09538 12.7561 6.27335 12.9786C6.47357 13.2011 6.87399 13.4235 7.47463 13.646C8.09752 13.8462 9.0096 14.0575 10.2109 14.28C12.3687 14.6582 13.9371 15.3255 14.9159 16.2821C15.917 17.2387 16.4175 18.3621 16.4175 19.6524C16.4175 21.2986 15.6834 22.6222 14.2151 23.6233C12.7469 24.6021 10.7003 25.0915 8.07527 25.0915ZM29.16 24.5242C29.3157 24.68 29.5159 24.7578 29.7606 24.7578H33.9317C34.1764 24.7578 34.3766 24.68 34.5324 24.5242C34.6881 24.3463 34.7659 24.1461 34.7659 23.9236V14.8139C34.7659 13.7683 35.0329 12.9675 35.5668 12.4113C36.1007 11.8329 36.8348 11.5437 37.7691 11.5437C38.7257 11.5437 39.4598 11.8329 39.9715 12.4113C40.4832 12.9675 40.739 13.7683 40.739 14.8139V23.9236C40.739 24.1461 40.8168 24.3463 40.9726 24.5242C41.1505 24.68 41.3507 24.7578 41.5732 24.7578H45.7777C46.0224 24.7578 46.2226 24.68 46.3783 24.5242C46.534 24.3463 46.6119 24.1461 46.6119 23.9236V14.6137C46.6119 12.2334 46.0001 10.387 44.7766 9.07444C43.5531 7.73969 41.9625 7.07231 40.0049 7.07231C38.8036 7.07231 37.7247 7.29477 36.7681 7.73969C35.8338 8.18461 35.0663 8.77412 34.4656 9.50824V8.24022C34.4656 7.99552 34.3766 7.7953 34.1987 7.63958C34.043 7.48386 33.8427 7.406 33.598 7.406H29.7606C29.5159 7.406 29.3157 7.48386 29.16 7.63958C29.0043 7.7953 28.9264 7.99552 28.9264 8.24022V23.9236C28.9264 24.1683 29.0043 24.3685 29.16 24.5242ZM55.5741 25.0915C54.395 25.0915 53.3161 24.8691 52.3373 24.4241C51.3807 23.957 50.6243 23.3341 50.0682 22.5555C49.5343 21.7546 49.2673 20.8759 49.2673 19.9193C49.2673 18.3844 49.8902 17.1497 51.136 16.2154C52.404 15.2811 54.1392 14.6359 56.3415 14.28L60.5127 13.646V13.1788C60.5127 12.3335 60.3347 11.7106 59.9788 11.3102C59.6228 10.9097 59.0222 10.7095 58.1768 10.7095C57.6652 10.7095 57.2425 10.7985 56.9088 10.9765C56.5751 11.1544 56.2303 11.3991 55.8744 11.7106C55.5629 11.9775 55.3294 12.1555 55.1736 12.2445C55.1069 12.4225 54.9845 12.5114 54.8066 12.5114H51.1694C50.9469 12.5114 50.7578 12.4447 50.6021 12.3112C50.4686 12.1555 50.413 11.9775 50.4353 11.7773C50.4575 11.1767 50.7467 10.5093 51.3028 9.77519C51.8812 9.04108 52.7488 8.40707 53.9056 7.87316C55.0846 7.33926 56.5306 7.07231 58.2436 7.07231C60.9798 7.07231 63.0042 7.68407 64.3167 8.9076C65.6292 10.1089 66.2855 11.7328 66.2855 13.7795V23.9236C66.2855 24.1461 66.2076 24.3463 66.0519 24.5242C65.8962 24.68 65.696 24.7578 65.4512 24.7578H61.5805C61.358 24.7578 61.1578 24.68 60.9798 24.5242C60.8241 24.3463 60.7462 24.1461 60.7462 23.9236V22.7557C60.2568 23.4453 59.5672 24.0126 58.6774 24.4575C57.8098 24.8802 56.7753 25.0915 55.5741 25.0915ZM57.1424 21.2875C58.1657 21.2875 58.9888 20.9538 59.6117 20.2864C60.2568 19.619 60.5794 18.6402 60.5794 17.3499V16.8828L57.743 17.3833C55.7409 17.7392 54.7398 18.44 54.7398 19.4855C54.7398 20.0417 54.9734 20.4866 55.4406 20.8203C55.9077 21.1317 56.475 21.2875 57.1424 21.2875ZM71.686 23.1227C72.8873 24.4353 74.4668 25.0915 76.4244 25.0915C78.9604 25.0915 80.8068 24.2795 81.9636 22.6556V23.9236C81.9636 24.1461 82.0415 24.3463 82.1972 24.5242C82.3752 24.68 82.5754 24.7578 82.7979 24.7578H86.6687C86.9134 24.7578 87.1136 24.68 87.2693 24.5242C87.425 24.3463 87.5029 24.1461 87.5029 23.9236V8.24022C87.5029 7.99552 87.425 7.7953 87.2693 7.63958C87.1136 7.48386 86.9134 7.406 86.6687 7.406H82.4975C82.2751 7.406 82.0749 7.48386 81.8969 7.63958C81.7412 7.7953 81.6633 7.99552 81.6633 8.24022V17.3499C81.6633 18.3732 81.3964 19.1741 80.8625 19.7525C80.3286 20.3309 79.5944 20.6201 78.6601 20.6201C76.7247 20.6201 75.757 19.53 75.757 17.3499V8.24022C75.757 7.99552 75.668 7.7953 75.4901 7.63958C75.3344 7.48386 75.1341 7.406 74.8894 7.406H70.7183C70.4736 7.406 70.2734 7.48386 70.1177 7.63958C69.962 7.7953 69.8841 7.99552 69.8841 8.24022V17.5501C69.8841 19.9305 70.4847 21.788 71.686 23.1227Z" fill="black"/>
</svg>
