<svg width="21" height="20" viewBox="0 0 21 20" fill="none" xmlns="http://www.w3.org/2000/svg">
<path d="M10.8905 0.188217C5.31169 0.188217 0.788208 4.58688 0.788208 10.0117C0.788208 15.4366 5.31169 19.8353 10.8905 19.8353C16.4693 19.8353 20.9928 15.4366 20.9928 10.0117C20.9928 4.58688 16.4693 0.188217 10.8905 0.188217ZM14.1399 10.163L9.21505 13.6473C9.18805 13.6662 9.15622 13.6775 9.12307 13.6799C9.08992 13.6823 9.05672 13.6758 9.02712 13.6611C8.99752 13.6463 8.97268 13.624 8.95531 13.5964C8.93794 13.5688 8.92872 13.5371 8.92867 13.5048V6.54062C8.92856 6.50823 8.93768 6.47643 8.95501 6.44877C8.97234 6.4211 8.99722 6.39865 9.02687 6.38389C9.05653 6.36913 9.08981 6.36264 9.12302 6.36515C9.15624 6.36766 9.18809 6.37906 9.21505 6.39809L14.1399 9.88018C14.1632 9.89618 14.1822 9.91738 14.1953 9.94199C14.2084 9.9666 14.2152 9.9939 14.2152 10.0216C14.2152 10.0493 14.2084 10.0766 14.1953 10.1012C14.1822 10.1258 14.1632 10.147 14.1399 10.163V10.163Z" fill="#163E1F"/>
</svg>
