<svg width="75" height="20" viewBox="0 0 75 20" fill="none" xmlns="http://www.w3.org/2000/svg">
<path d="M32.8581 19.3321C29.2285 19.3321 27.4136 17.6049 27.4136 14.1506V9.10059H25.3621C25.1692 9.10059 25.0026 9.0392 24.8623 8.91647C24.7396 8.79371 24.6782 8.63592 24.6782 8.44303V6.31254C24.6782 6.11968 24.7396 5.96186 24.8623 5.83913C25.0026 5.71637 25.1692 5.65501 25.3621 5.65501H27.4136V1.31515C27.4136 1.12226 27.475 0.964453 27.5978 0.84171C27.738 0.718966 27.8959 0.657593 28.0712 0.657593H31.1222C31.3151 0.657593 31.4729 0.718966 31.5957 0.84171C31.7184 0.964453 31.7798 1.12226 31.7798 1.31515V5.65501H35.0675C35.2604 5.65501 35.4182 5.71637 35.5409 5.83913C35.6811 5.96186 35.7513 6.11968 35.7513 6.31254V8.44303C35.7513 8.63592 35.6811 8.79371 35.5409 8.91647C35.4182 9.0392 35.2604 9.10059 35.0675 9.10059H31.7798V13.7824C31.7798 15.0799 32.2796 15.7287 33.2789 15.7287H35.3042C35.4971 15.7287 35.6548 15.7901 35.7776 15.9128C35.9006 16.0356 35.962 16.1934 35.962 16.3863V18.6746C35.962 18.8499 35.9006 19.0077 35.7776 19.148C35.6548 19.2708 35.4971 19.3321 35.3042 19.3321H32.8581Z" fill="white"/>
<path d="M54.3114 19.3321C54.1185 19.3321 53.9607 19.2707 53.838 19.148C53.7153 19.0252 53.6539 18.8674 53.6539 18.6745V6.31252C53.6539 6.11966 53.7153 5.96184 53.838 5.83911C53.9607 5.71635 54.1185 5.65499 54.3114 5.65499H57.336C57.5289 5.65499 57.6867 5.71635 57.8094 5.83911C57.9497 5.96184 58.0198 6.11966 58.0198 6.31252V7.312C58.4935 6.73336 59.0984 6.26869 59.8347 5.91801C60.5886 5.56729 61.4393 5.39197 62.386 5.39197C63.9292 5.39197 65.1828 5.91801 66.1474 6.97008C67.1117 8.00463 67.5938 9.46002 67.5938 11.3363V18.6745C67.5938 18.8499 67.5325 19.0077 67.4097 19.148C67.287 19.2707 67.1292 19.3321 66.9364 19.3321H63.6224C63.4471 19.3321 63.289 19.2707 63.1487 19.148C63.026 19.0077 62.9646 18.8499 62.9646 18.6745V11.494C62.9646 10.6699 62.763 10.0387 62.3597 9.60031C61.9565 9.1444 61.3779 8.91645 60.6237 8.91645C59.8873 8.91645 59.3088 9.1444 58.888 9.60031C58.4672 10.0387 58.2565 10.6699 58.2565 11.494V18.6745C58.2565 18.8499 58.1951 19.0077 58.0724 19.148C57.9497 19.2707 57.7919 19.3321 57.599 19.3321H54.3114Z" fill="white"/>
<path d="M70.7127 3.49818C70.8354 3.62094 70.9932 3.68231 71.186 3.68231H74.3425C74.5354 3.68231 74.6932 3.62094 74.8159 3.49818C74.9386 3.37546 75 3.21763 75 3.02475V0.657552C75 0.464672 74.9386 0.306858 74.8159 0.184114C74.6932 0.0613714 74.5354 0 74.3425 0H71.186C70.9932 0 70.8354 0.0613714 70.7127 0.184114C70.5899 0.306858 70.5286 0.464672 70.5286 0.657552V3.02475C70.5286 3.21763 70.5899 3.37546 70.7127 3.49818Z" fill="white"/>
<path d="M70.739 19.148C70.8617 19.2708 71.0195 19.3321 71.2127 19.3321H74.3162C74.5091 19.3321 74.6669 19.2708 74.7896 19.148C74.9123 19.0078 74.9737 18.8499 74.9737 18.6746V6.31256C74.9737 6.1197 74.9123 5.96188 74.7896 5.83915C74.6669 5.71639 74.5091 5.65503 74.3162 5.65503H71.2127C71.0195 5.65503 70.8617 5.71639 70.739 5.83915C70.6162 5.96188 70.5549 6.1197 70.5549 6.31256V18.6746C70.5549 18.8675 70.6162 19.0253 70.739 19.148Z" fill="white"/>
<path fill-rule="evenodd" clip-rule="evenodd" d="M15.4324 3.68079C15.5551 3.80355 15.7129 3.86492 15.9058 3.86492H19.0621C19.2549 3.86492 19.4128 3.80355 19.5355 3.68079C19.6582 3.55806 19.7196 3.40024 19.7196 3.20736V0.840172C19.7196 0.647289 19.6582 0.489474 19.5355 0.36673C19.4128 0.243989 19.2549 0.182617 19.0621 0.182617H15.9058C15.7129 0.182617 15.5551 0.243989 15.4324 0.36673C15.3096 0.489474 15.2482 0.647289 15.2482 0.840172V3.20736C15.2482 3.40024 15.3096 3.55806 15.4324 3.68079ZM15.4587 19.3306C15.5814 19.4533 15.7392 19.5147 15.9321 19.5147H19.0358C19.2286 19.5147 19.3865 19.4533 19.5092 19.3306C19.632 19.1903 19.6933 19.0325 19.6933 18.8572V6.49514C19.6933 6.30225 19.632 6.14443 19.5092 6.0217C19.3865 5.89894 19.2286 5.83758 19.0358 5.83758H15.9321C15.7392 5.83758 15.5814 5.89894 15.4587 6.0217C15.3359 6.14443 15.2745 6.30225 15.2745 6.49514V18.8572C15.2745 19.05 15.3359 19.2078 15.4587 19.3306ZM2.78803 19.1728C3.75244 19.5761 4.94481 19.7777 6.36513 19.7777C8.43422 19.7777 10.0474 19.392 11.2047 18.6204C12.362 17.8313 12.9407 16.788 12.9407 15.4905C12.9407 14.4735 12.5461 13.5879 11.757 12.8339C10.9855 12.0799 9.74932 11.5539 8.04844 11.2558C7.10159 11.0805 6.38266 10.9139 5.89169 10.7561C5.41825 10.5807 5.10263 10.4054 4.94481 10.23C4.80451 10.0547 4.73438 9.8355 4.73438 9.57248C4.73438 9.23933 4.86591 8.96755 5.12893 8.75712C5.40948 8.5467 5.7777 8.44147 6.2336 8.44147C6.61938 8.44147 6.94377 8.50287 7.20679 8.6256C7.46981 8.74836 7.75036 8.92368 8.04844 9.15164C8.2238 9.29193 8.42546 9.42342 8.65341 9.54618C8.77614 9.63384 8.90766 9.67768 9.04796 9.67768H11.7834C11.9412 9.67768 12.0727 9.61631 12.1779 9.49358C12.3007 9.37082 12.362 9.23057 12.362 9.07274C12.362 8.61683 12.1165 8.11709 11.6256 7.57352C11.1521 7.01242 10.4507 6.53897 9.52136 6.15319C8.59205 5.76745 7.50487 5.57456 6.2599 5.57456C5.01494 5.57456 3.93656 5.77621 3.02475 6.17949C2.13047 6.58281 1.45539 7.10884 0.999481 7.75764C0.543578 8.40641 0.315626 9.09027 0.315626 9.8092C0.315626 10.949 0.70139 11.8608 1.47292 12.5446C2.26198 13.211 3.38422 13.6932 4.83961 13.9912C5.80399 14.1841 6.52292 14.3682 6.99636 14.5436C7.46981 14.7014 7.78542 14.868 7.94325 15.0433C8.1186 15.2187 8.20627 15.4554 8.20627 15.7535C8.20627 16.1217 8.03968 16.4111 7.70653 16.6214C7.39091 16.8143 6.97883 16.9108 6.47033 16.9108C6.04948 16.9108 5.69003 16.8494 5.39195 16.7267C5.1114 16.5864 4.77821 16.376 4.39247 16.0954C4.28724 16.0077 4.12945 15.8938 3.91903 15.7535C3.83133 15.6658 3.7349 15.622 3.62971 15.622H0.63125C0.473438 15.622 0.324393 15.6834 0.184115 15.8061C0.0613718 15.9113 0 16.0516 0 16.2269C0 16.6653 0.227952 17.165 0.683857 17.7262C1.13976 18.2873 1.84115 18.7695 2.78803 19.1728Z" fill="white"/>
<path d="M38.152 9.75632H41.8857C41.8857 8.58749 43.2925 8.29528 43.9961 8.29528C46.074 8.16541 46.2688 9.75632 46.1065 10.568C44.6779 10.9576 42.4808 11.2715 41.561 11.3797C38.0545 11.8992 37.286 14.1936 37.3403 15.2758C37.3403 18.2628 39.3964 19.226 40.4247 19.3342L40.587 18.6849C39.0286 17.2563 39.5049 15.384 39.9377 14.6265C40.8468 15.1459 41.074 16.6827 41.074 17.3862L41.7234 16.0875C40.6844 14.6589 41.2906 12.7866 41.7234 12.029C42.5026 12.6784 42.4808 14.2477 42.3727 14.9511L43.5091 13.8148C44.2883 11.9966 46.2146 11.542 47.0805 11.542C46.561 12.8407 44.6997 13.923 43.8338 14.3018L43.0221 15.2758C44.061 14.6265 44.9701 15.1135 45.2948 15.4381C44.3857 16.607 42.8597 16.6827 42.2104 16.5745L41.7234 17.5485C42.6325 16.8992 43.5091 17.1697 43.8338 17.3862C43.0545 18.8148 41.7776 19.0637 41.2364 19.0096L41.074 19.4966C43.6714 19.7563 45.7276 18.5226 46.4312 17.8732V19.3342H50.6519V11.3797C50.6519 6.5745 46.7558 5.48142 44.8078 5.53554C39.7429 5.2758 38.2601 8.24116 38.152 9.75632Z" fill="white"/>
</svg>
